# xmcd
#
# Track frame offsets:
#	150
#	14908
#	31594
#	48065
#	64593
#	81206
#	98709
#	112254
#	126796
#	142331
#	154235
#	169815
#	180810
#	197945
#	214864
#	240103
#	250228
#	269268
#
# Disc length: 3795 seconds
#
# Revision: 1
# Processed by: cddbd v1.5.1PL0 Copyright (c) Steve Scherf et al.
# Submitted via: CDex 1.50Beta5
#
DISCID=f70ed112
DTITLE=さまざまなアーティスト - PUNK CHIPS 夏味
DYEAR=1900
DGENRE=
TTITLE0=オナニーマシーン/ドーテー島
TTITLE1=マスラヲコミッショナー/追風
TTITLE2=THE STAND UP/涙
TTITLE3=SPINLAW/ガラスノパズル
TTITLE4=THE BOOGIE JACK/片隅の唄
TTITLE5=HIGHWAY61/レット・イット・シャイン
TTITLE6=Bivattchee/Ride On Drive
TTITLE7=SUN PEE/Reality and Limit
TTITLE8=マグネットコーティング/ザンボット衛星
TTITLE9=Mustang!!/Melancholy
TTITLE10=CREEPS/Summer Story
TTITLE11=向風/マリアの声
TTITLE12=YOUTH26/ハイオク満タン
TTITLE13=AOH-RINGO JUICE/はじめの一歩
TTITLE14=ナイチン×ギャル/ピカピカのおもちゃ
TTITLE15=藍坊主/プリティーパンクミュージック
TTITLE16=Yum! Yum! ORANGE/Letter
TTITLE17=DOMINO88/GALAXY EXPRESS 999
EXTD=
EXTT0=
EXTT1=
EXTT2=
EXTT3=
EXTT4=
EXTT5=
EXTT6=
EXTT7=
EXTT8=
EXTT9=
EXTT10=
EXTT11=
EXTT12=
EXTT13=
EXTT14=
EXTT15=
EXTT16=
EXTT17=
PLAYORDER=
